<?xml version="1.0" encoding="UTF-8" standalone="no"?>
<!DOCTYPE svg PUBLIC "-//W3C//DTD SVG 1.1//EN" "http://www.w3.org/Graphics/SVG/1.1/DTD/svg11.dtd">
<svg xmlns:xlink="http://www.w3.org/1999/xlink" height="160px" version="1.1" viewBox="0 0 160 160" width="160px" x="0px" y="0px" xmlns="http://www.w3.org/2000/svg">
  <path d="M6,66.35382907247958 L114.0,13.646170927520412 Q120,10.717967697244902 120,17.646170927520412 L120.0,142.3538290724796 Q120,149.2820323027551 114,145.2820323027551 L6.0,73.2820323027551 Q0,69.2820323027551 6,66.35382907247958" style="fill:none;stroke:rgb(0,0,0);stroke-miterlimit:10;"/>
  <path d="M17.4,61.48306325798367 L114.6,26.51693674201633 Q120,24.574374157795923 119.4,30.409757065043884 L108.6,135.44664939550717 Q108,141.2820323027551 103.2,137.38921197972755 L16.8,67.31844616523163 Q12,63.42562584220408 17.4,61.48306325798367" style="fill:none;stroke:rgb(0,0,0);stroke-miterlimit:10;"/>
  <path d="M27.6,58.37573263868969 L114.0,37.409908007365416 Q118.8,36.245139972291845 117.78,41.10770255651225 L99.42,128.6338290724796 Q98.4,133.4963916567 94.62,129.79859710755318 L26.580000000000002,63.2382952229101 Q22.8,59.54050067376326 27.6,58.37573263868969" style="fill:none;stroke:rgb(0,0,0);stroke-miterlimit:10;"/>
  <path d="M36.618,56.64892963047195 L112.54199999999999,46.532300113876836 Q116.75999999999999,45.970265140732664 115.464,49.97679201161635 L92.136,122.09427568752265 Q90.84,126.10080255840634 87.918,122.65631066066683 L35.322,60.65545650135563 Q32.400000000000006,57.21096460361612 36.618,56.64892963047195" style="fill:none;stroke:rgb(0,0,0);stroke-miterlimit:10;"/>
  <path d="M44.50260000000001,55.98171586858639 L110.50139999999999,54.08849767124141 Q114.16799999999999,53.98331888250003 112.70939999999999,57.2447438765214 L86.45460000000001,115.95039376890595 Q84.99600000000001,119.21181876292732 82.78800000000001,116.05557255764734 L43.044000000000004,59.24314086260775 Q40.836000000000006,56.086894657327775 44.50260000000001,55.98171586858639" style="fill:none;stroke:rgb(0,0,0);stroke-miterlimit:10;"/>
  <path d="M51.323280000000004,56.10801866937989 L108.09672,60.27468728100787 Q111.2508,60.50616887054276 109.71726,63.12582674463399 L82.11354000000001,110.27966847827614 Q80.58000000000001,112.89932635236737 78.95946,110.04818688874124 L49.78974,58.72767654347112 Q48.169200000000004,55.876537079845 51.323280000000004,56.10801866937989" style="fill:none;stroke:rgb(0,0,0);stroke-miterlimit:10;"/>
  <path d="M57.16267800000001,56.8097994769053 L105.498402,65.2751854007347 Q108.18372,65.74548461872521 106.64148,67.81806275904471 L78.88116000000001,105.12446928479564 Q77.33892000000002,107.19704742511513 76.19584200000001,104.65417006680511 L55.62043800000001,58.88237761722479 Q54.477360000000004,56.339500258914775 57.16267800000001,56.8097994769053" style="fill:none;stroke:rgb(0,0,0);stroke-miterlimit:10;"/>
  <path d="M62.1105582,57.91062580511924 L102.83667779999999,69.26011378914077 Q105.09924,69.8906408993642 103.5969162,71.50167348982075 L76.55508780000001,100.50026011803855 Q75.05276400000001,102.1112927084951 74.2925256,99.86973300781514 L60.6082344,59.521658395575784 Q59.847996,57.28009869489582 62.1105582,57.91062580511924" style="fill:none;stroke:rgb(0,0,0);stroke-miterlimit:10;"/>
  <path d="M66.25919400000001,59.26973057358939 L100.2085188,72.38412842203056 Q102.0945924,73.11270608027729 100.66647714,74.33847944162018 L74.96040246000001,96.40239994579228 Q73.53228720000001,97.62817330713517 73.07432886000001,95.67382228754555 L64.83107874000001,60.49550393493228 Q64.3731204,58.54115291534266 66.25919400000001,59.26973057358939" style="fill:none;stroke:rgb(0,0,0);stroke-miterlimit:10;"/>
  <path d="M69.699922314,60.77660546039247 L97.683707166,74.78595557440673 Q99.23836188,75.56425280296308 97.907262312,76.47201372621272 L73.94747008800002,92.81171034470628 Q72.61637052000002,93.71947126795592 72.39281537400002,92.03341311614993 L68.368822746,61.68436638364211 Q68.14526760000001,59.99830823183612 69.699922314,60.77660546039247" style="fill:none;stroke:rgb(0,0,0);stroke-miterlimit:10;"/>
</svg>
